PathFileType	4	(X/Y/Z)	C:/Users/cpontonn/Documents/TRAVAIL - COURS/FORMATION DOCTORALE/COURS AUTOMNE/TP OPENSIM/ESCRIME DATA/C3Ds/Trial011.trc	
DataRate	CameraRate	NumFrames	NumMarkers	Units	OrigDataRate	OrigDataStartFrame	OrigNumFrames	
250.00	250.00	4	54	mm	250.00	692	790	
Frame#	Time	Sword:Root4			Screen:LBot			Screen:RBot			Screen:LTop			Screen:RTop			Screen:MTop			Sword:Root1			Sword:Root2			Sword:Root3			Sword:Root5			Sword:Root6			Sword:STip			LFHD			LBHD			RFHD			RBHD			C7			T10			CLAV			STRN			LSHO			LRAD			LHUM			LWRB			LWRA			RSHO			RBAC			RUPA			RRAD			RHUM			RWRB			RWRA			RCAR			LFWT			LBWT			RFWT			RBWT			LKNE			LKNI			LANE			LANI			LHEE			LTAR			LTARI			LTOE			RTHI			RKNE			RKNI			RANE			RANI			RHEE			RTAR			RTARI			RTOE			
		X1	Y1	Z1	X2	Y2	Z2	X3	Y3	Z3	X4	Y4	Z4	X5	Y5	Z5	X6	Y6	Z6	X7	Y7	Z7	X8	Y8	Z8	X9	Y9	Z9	X10	Y10	Z10	X11	Y11	Z11	X12	Y12	Z12	X13	Y13	Z13	X14	Y14	Z14	X15	Y15	Z15	X16	Y16	Z16	X17	Y17	Z17	X18	Y18	Z18	X19	Y19	Z19	X20	Y20	Z20	X21	Y21	Z21	X22	Y22	Z22	X23	Y23	Z23	X24	Y24	Z24	X25	Y25	Z25	X26	Y26	Z26	X27	Y27	Z27	X28	Y28	Z28	X29	Y29	Z29	X30	Y30	Z30	X31	Y31	Z31	X32	Y32	Z32	X33	Y33	Z33	X34	Y34	Z34	X35	Y35	Z35	X36	Y36	Z36	X37	Y37	Z37	X38	Y38	Z38	X39	Y39	Z39	X40	Y40	Z40	X41	Y41	Z41	X42	Y42	Z42	X43	Y43	Z43	X44	Y44	Z44	X45	Y45	Z45	X46	Y46	Z46	X47	Y47	Z47	X48	Y48	Z48	X49	Y49	Z49	X50	Y50	Z50	X51	Y51	Z51	X52	Y52	Z52	X53	Y53	Z53	X54	Y54	Z54	

692	2.764	67.08639	1700.89551	826.49744	-1670.87683	3506.17139	29.39273	2281.35767	3509.31860	32.13778	-1652.73645	3517.18164	2206.23975	2272.79541	3511.30200	2215.47266	-472.50940	3518.47217	2201.31812	119.12486	1737.54932	799.37903	137.79433	2024.48499	611.76984	185.31871	1658.62500	827.35760	35.62751	1646.65710	826.19928	114.37750	1656.88672	773.77753	164.06711	2384.14795	265.92493	170.85706	1349.48938	1615.06494	135.93294	1258.78906	1582.18311	379.82791	1299.42493	1642.25183	364.74826	1187.04065	1595.47803	193.78975	1160.93921	1453.20898	127.52370	1089.44800	1195.39563	310.93814	1250.89172	1346.33386	340.95343	1246.80103	1190.83142	117.63416	1347.53503	1351.72534	20.37657	1359.45508	1035.19531	82.22719	1310.79407	1006.82794	99.14374	1532.06177	826.03821	97.65572	1589.44019	910.27667	360.06366	1040.70422	1407.34241	210.12607	1012.07880	1356.16052	416.87109	952.09021	1207.85986	403.53021	855.80267	1141.69934	320.40738	877.83594	1104.35767	538.66003	1027.79993	972.48669	505.51089	1094.32019	1030.61768	578.14252	1113.33496	983.74280	239.15251	1264.81128	945.77252	105.81073	1087.77307	995.80048	366.87769	1077.25854	966.82306	150.71687	1026.10303	1004.63977	177.71065	1408.87952	520.96082	301.79080	1350.98547	483.27606	136.19916	1323.52307	108.88964	227.90550	1293.95508	118.64806	151.02443	1238.45422	71.56702	173.44939	1453.65674	37.79637	272.86017	1410.67261	52.44360	272.47144	1490.98950	52.61211	445.81088	999.09753	571.91016	397.05563	899.25378	520.73877	357.63239	1015.86462	461.33768	186.62952	757.46344	162.39771	201.82567	849.32483	125.43699	116.88573	798.39996	121.26816	313.62024	716.23022	72.75572	316.69556	827.90131	60.42892	384.24561	800.77899	62.29181 
693	2.768	67.33981	1698.93079	826.25830	-1670.90857	3506.10571	29.38753	2281.31348	3509.36841	32.16115	-1652.72522	3517.44409	2206.23096	2272.74243	3511.32178	2215.39209	-472.49313	3518.59888	2201.35010	119.42584	1735.72412	799.29913	137.89754	2022.91541	612.16687	185.56067	1656.87744	827.29456	36.01359	1644.66284	825.77240	115.03433	1655.16467	773.56079	164.30629	2382.41455	266.06711	170.56834	1346.54797	1613.84070	135.81787	1255.78833	1581.06091	379.71301	1296.95398	1640.74060	364.77243	1184.43628	1594.11609	193.41525	1157.95898	1451.76221	127.24886	1086.86792	1193.76892	310.54453	1248.11987	1344.85217	340.14865	1244.17847	1189.43115	117.36423	1344.78687	1350.38794	20.23739	1357.06104	1033.60706	81.79069	1308.18494	1005.13727	99.60224	1530.07910	825.54907	97.75127	1587.35303	909.78558	359.82355	1037.85315	1405.69861	209.81163	1009.22974	1354.47620	416.51331	949.01672	1205.80701	402.96844	852.96222	1139.66052	319.81720	875.26135	1102.60791	537.65210	1025.01624	970.43567	504.70419	1091.73901	1028.46301	577.21924	1110.68555	981.52136	239.21964	1262.59546	944.36249	105.46766	1085.49585	993.89441	366.44989	1074.18835	965.69757	150.34137	1023.79553	1002.60248	177.38318	1407.90491	520.56299	302.17914	1351.65393	483.32623	136.19296	1323.23132	108.33791	227.82414	1293.64063	118.14556	150.98782	1238.20300	70.68134	173.29671	1453.71240	37.85066	272.94757	1410.56177	52.33294	272.41928	1490.90479	52.65251	446.12701	996.12653	570.66858	397.92831	895.30566	520.00604	357.69678	1011.64240	460.16574	186.20642	750.91998	163.70636	202.56964	842.07819	125.14385	117.09439	792.06305	121.44252	313.14291	706.93842	75.70416	317.52011	818.29456	60.81072	384.64423	790.51294	63.79341 
694	2.772	67.46086	1697.05359	826.00763	-1670.91089	3506.13330	29.40811	2281.29565	3509.40308	32.18810	-1652.71765	3517.75146	2206.27075	2272.54199	3511.10132	2215.49023	-472.48010	3518.59741	2201.30371	119.79146	1733.90076	799.21240	138.00319	2021.41748	612.56488	185.99648	1655.14368	827.23254	36.39753	1642.68848	825.36456	115.57267	1653.35828	773.43585	164.60387	2381.01733	266.63004	170.32416	1343.60962	1612.59424	135.39435	1252.65283	1580.06104	379.66028	1294.44031	1639.13416	364.78094	1181.80029	1592.68347	193.06905	1154.89966	1450.33838	126.99996	1084.23535	1192.05249	310.22537	1245.29163	1343.33276	339.76157	1241.56897	1187.97742	116.77360	1342.04492	1349.10034	20.10342	1354.56726	1031.94580	82.20037	1306.13269	1003.42395	100.37045	1528.35449	824.66083	98.13431	1585.17224	909.31824	359.58234	1034.99365	1404.00879	209.49539	1006.29047	1352.68970	416.12390	946.03516	1203.69067	402.64694	850.33734	1137.72815	319.58771	872.73584	1100.60352	536.83942	1022.56989	968.12073	503.84998	1089.02698	1026.34180	576.37952	1107.95605	979.26868	239.74570	1260.39417	943.12402	105.25619	1083.14600	991.88043	366.60715	1071.96631	964.02502	150.05083	1021.39557	1000.50031	177.06900	1406.83423	520.02899	302.36316	1352.28113	483.26245	136.17456	1322.94495	107.75441	227.79222	1293.27222	117.57182	150.91418	1237.95874	69.73989	173.31070	1453.67285	37.71128	272.90500	1410.46533	52.28425	272.42892	1490.84351	52.70833	446.40656	993.05457	569.36505	398.69760	891.33600	519.28943	357.58957	1007.28143	459.11642	185.79019	744.31622	164.97206	203.25801	834.69574	124.96874	117.29208	785.49023	121.65199	312.63351	697.77478	78.46210	318.31503	808.74939	61.61789	385.01929	780.33838	65.20343 
695	2.776	67.81011	1694.96790	825.81323	-1670.90649	3506.13574	29.34167	2281.33667	3509.38916	32.15851	-1652.65417	3517.96484	2206.16357	2272.68994	3511.37500	2215.37158	-472.50986	3518.76660	2201.52173	119.96370	1731.97510	799.14459	138.26227	2019.98889	613.06683	186.53873	1653.31787	827.00720	36.72068	1640.61096	824.95428	115.97632	1651.55042	773.18268	164.89850	2380.00952	267.62234	170.04688	1340.57886	1611.31165	135.15952	1249.51807	1578.95837	379.63202	1291.84192	1637.52588	364.71915	1179.13940	1591.11230	192.68910	1151.82031	1448.81543	126.82801	1081.56946	1190.26978	309.85153	1242.43127	1341.79688	339.47037	1238.98315	1186.54602	116.23331	1339.19775	1347.80640	19.96003	1351.96814	1030.21411	81.77019	1303.41882	1001.59198	100.92224	1526.23425	824.01367	98.29523	1582.96729	908.85388	359.35559	1032.05469	1402.24963	209.22838	1003.36969	1350.84656	415.82800	943.05682	1201.56006	402.31296	847.54370	1135.57373	319.36270	869.84753	1098.58630	535.98584	1019.89374	965.77948	503.20090	1086.40369	1024.16162	575.62549	1105.26929	977.05304	239.52528	1258.23096	941.44537	105.04843	1080.63940	989.76831	366.37451	1069.08398	962.58752	149.81302	1018.91998	998.32269	176.62956	1405.76501	519.40314	302.55838	1352.86011	483.05502	136.18752	1322.65137	107.12419	227.71590	1292.91528	116.98378	150.83948	1237.69324	68.73169	173.21382	1453.70837	37.75879	272.83075	1410.29919	52.26347	272.42758	1490.70557	52.70319	446.60791	989.69281	568.02478	399.43076	887.22125	518.51184	357.83728	1002.91010	457.87531	185.63388	737.63904	166.08781	203.65277	827.35162	124.93956	117.46802	778.70105	121.96829	312.09827	688.89423	81.04279	318.88882	799.38910	62.07813	385.26889	770.51941	66.40968 
